<svg width="128" height="128" viewBox="0 0 128 128" fill="none" xmlns="http://www.w3.org/2000/svg">
<path d="M65 34C65 33.4477 64.5523 33 64 33C63.4477 33 63 33.4477 63 34V38C63 38.5523 63.4477 39 64 39C64.5523 39 65 38.5523 65 38V34Z" fill="black"/>
<path fill-rule="evenodd" clip-rule="evenodd" d="M92.859 77.4009C92.012 77.655 91.13 77.8977 90.2154 78.1284L93.4852 84.014C93.6553 84.0047 93.827 84 94 84C95.5308 84 96.9651 84.3702 98.05 85.0212C99.1151 85.6602 100 86.6823 100 88C100 89.3177 99.1151 90.3398 98.05 90.9788C96.9651 91.6298 95.5308 92 94 92C92.4692 92 91.0349 91.6298 89.95 90.9788C88.8849 90.3398 88 89.3177 88 88C88 86.6823 88.8849 85.6602 89.95 85.0212C90.3834 84.7612 90.8725 84.5459 91.4012 84.3812L88.1934 78.607C81.627 80.0638 73.6242 80.9338 65 80.9964V91.0535C66.1489 91.1777 67.2053 91.5144 68.05 92.0212C69.1151 92.6602 70 93.6823 70 95C70 96.3177 69.1151 97.3398 68.05 97.9788C66.9651 98.6298 65.5308 99 64 99C62.4692 99 61.0349 98.6298 59.95 97.9788C58.8849 97.3398 58 96.3177 58 95C58 93.6823 58.8849 92.6602 59.95 92.0212C60.7947 91.5144 61.8511 91.1777 63 91.0535V80.9964C54.3759 80.9338 46.3731 80.0638 39.8067 78.607L36.5989 84.3812C37.1276 84.5459 37.6167 84.7612 38.05 85.0212C39.1151 85.6602 40 86.6823 40 88C40 89.3177 39.1151 90.3398 38.05 90.9788C36.9651 91.6298 35.5308 92 34 92C32.4692 92 31.0349 91.6298 29.95 90.9788C28.8849 90.3398 28 89.3177 28 88C28 86.6823 28.8849 85.6602 29.95 85.0212C31.0349 84.3702 32.4692 84 34 84C34.173 84 34.3448 84.0047 34.5149 84.0141L37.7847 78.1284C36.8701 77.8978 35.988 77.655 35.141 77.4009C31.4177 76.284 28.259 74.9142 25.9863 73.3023C23.7657 71.7272 22 69.6265 22 67C22 64.3735 23.7657 62.2728 25.9863 60.6977C28.259 59.0858 31.4177 57.7161 35.141 56.5991C42.6131 54.3575 52.8157 53 64 53C75.1843 53 85.3869 54.3575 92.859 56.5991C96.5823 57.7161 99.741 59.0858 102.014 60.6977C104.234 62.2728 106 64.3735 106 67C106 69.6265 104.234 71.7272 102.014 73.3023C99.741 74.9142 96.5823 76.284 92.859 77.4009ZM104 67C104 73.6274 86.0914 79 64 79C41.9086 79 24 73.6274 24 67C24 60.3726 41.9086 55 64 55C86.0914 55 104 60.3726 104 67ZM90.979 86.7362C91.365 86.5046 91.8478 86.3108 92.4007 86.1803L93.1259 87.4856C93.3941 87.9684 94.0029 88.1423 94.4857 87.8741C94.9685 87.6059 95.1424 86.9971 94.8742 86.5143L94.6021 86.0244C95.5772 86.1044 96.4174 86.374 97.021 86.7362C97.7656 87.1829 98 87.6608 98 88C98 88.3392 97.7656 88.8171 97.021 89.2638C96.2963 89.6986 95.2306 90 94 90C92.7694 90 91.7037 89.6986 90.979 89.2638C90.2344 88.8171 90 88.3392 90 88C90 87.6608 90.2344 87.1829 90.979 86.7362ZM60 95C60 94.6608 60.2344 94.1829 60.979 93.7362C61.4988 93.4243 62.1942 93.181 63 93.0684V94C63 94.5523 63.4477 95 64 95C64.5523 95 65 94.5523 65 94V93.0684C65.8058 93.181 66.5012 93.4243 67.021 93.7362C67.7656 94.1829 68 94.6608 68 95C68 95.3392 67.7656 95.8171 67.021 96.2638C66.2963 96.6986 65.2306 97 64 97C62.7694 97 61.7037 96.6986 60.979 96.2638C60.2344 95.8171 60 95.3392 60 95ZM30 88C30 87.6608 30.2344 87.1829 30.979 86.7362C31.5826 86.374 32.4229 86.1044 33.398 86.0244L33.1259 86.5143C32.8577 86.9971 33.0316 87.6059 33.5144 87.8741C33.9972 88.1423 34.606 87.9684 34.8742 87.4856L35.5994 86.1803C36.1523 86.3108 36.635 86.5046 37.021 86.7362C37.7656 87.1829 38 87.6608 38 88C38 88.3392 37.7656 88.8171 37.021 89.2638C36.2963 89.6986 35.2306 90 34 90C32.7694 90 31.7037 89.6986 30.979 89.2638C30.2344 88.8171 30 88.3392 30 88Z" fill="black"/>
<path d="M67.0001 42C54.1579 42 43.6715 52.0866 43.0311 64.7697C42.993 65.5235 43.4158 66.2154 44.1031 66.5272C52.3425 70.2652 71.1786 74.7286 89.8384 66.5272C90.5489 66.215 91.0075 65.5034 90.967 64.7284C90.3059 52.0647 79.8284 42 67.0001 42Z" fill="#A1B0FF"/>
<path fill-rule="evenodd" clip-rule="evenodd" d="M63.9999 29C62.3431 29 60.9999 30.3431 60.9999 32C60.9999 33.6569 62.3431 35 63.9999 35C65.6568 35 66.9999 33.6569 66.9999 32C66.9999 30.3431 65.6568 29 63.9999 29ZM62.9999 32C62.9999 31.4477 63.4476 31 63.9999 31C64.5522 31 64.9999 31.4477 64.9999 32C64.9999 32.5523 64.5522 33 63.9999 33C63.4476 33 62.9999 32.5523 62.9999 32Z" fill="black"/>
<path fill-rule="evenodd" clip-rule="evenodd" d="M40.2766 65.3485C48.8541 69.2399 68.3062 73.8571 87.643 65.3582C89.08 64.7266 90.0499 63.2665 89.9641 61.6242C89.2479 47.9035 77.8979 37 64 37C50.087 37 38.7274 47.9272 38.0335 61.6688C37.9539 63.2453 38.8433 64.6982 40.2766 65.3485ZM64 39C51.1577 39 40.6714 49.0866 40.031 61.7697C39.9929 62.5235 40.4156 63.2154 41.1029 63.5272C49.3423 67.2653 68.1785 71.7286 86.8382 63.5272C87.5487 63.215 88.0073 62.5034 87.9669 61.7284C87.3058 49.0647 76.8282 39 64 39Z" fill="black"/>
</svg>
